<svg xmlns="http://www.w3.org/2000/svg" xmlns:xlink="http://www.w3.org/1999/xlink" width="840" height="581.04"><rect width="840" height="581.04" rx="5" ry="5" class="a"/><svg y="0%" x="0%"><circle cx="20" cy="20" r="6" fill="#ff5f58"/><circle cx="40" cy="20" r="6" fill="#ffbd2e"/><circle cx="60" cy="20" r="6" fill="#18c132"/></svg><svg height="521.04" viewBox="0 0 80 52.104" width="800" x="15" xmlns="http://www.w3.org/2000/svg" xmlns:xlink="http://www.w3.org/1999/xlink" y="50"><style>@keyframes i{0%{transform:translateX(0)}.06%{transform:translateX(-80px)}.07%{transform:translateX(-160px)}8.72%{transform:translateX(-240px)}9.1%{transform:translateX(-320px)}10%{transform:translateX(-400px)}10.63%{transform:translateX(-480px)}11.77%{transform:translateX(-560px)}12.36%{transform:translateX(-640px)}13.26%{transform:translateX(-720px)}13.93%{transform:translateX(-800px)}14.43%{transform:translateX(-880px)}15%{transform:translateX(-960px)}15.59%{transform:translateX(-1040px)}15.99%{transform:translateX(-1120px)}16.91%{transform:translateX(-1200px)}17.98%{transform:translateX(-1280px)}18.57%{transform:translateX(-1360px)}19.14%{transform:translateX(-1440px)}19.66%{transform:translateX(-1520px)}20.27%{transform:translateX(-1600px)}20.82%{transform:translateX(-1680px)}21.59%{transform:translateX(-1760px)}21.95%{transform:translateX(-1840px)}22.31%{transform:translateX(-1920px)}22.81%{transform:translateX(-2000px)}23.3%{transform:translateX(-2080px)}23.76%{transform:translateX(-2160px)}24.26%{transform:translateX(-2240px)}24.87%{transform:translateX(-2320px)}25.29%{transform:translateX(-2400px)}25.94%{transform:translateX(-2480px)}26.34%{transform:translateX(-2560px)}26.91%{transform:translateX(-2640px)}27.91%{transform:translateX(-2720px)}28.52%{transform:translateX(-2800px)}29.07%{transform:translateX(-2880px)}29.78%{transform:translateX(-2960px)}30.5%{transform:translateX(-3040px)}30.92%{transform:translateX(-3120px)}31.78%{transform:translateX(-3200px)}32.39%{transform:translateX(-3280px)}33.04%{transform:translateX(-3360px)}33.42%{transform:translateX(-3440px)}33.88%{transform:translateX(-3520px)}34.97%{transform:translateX(-3600px)}36.02%{transform:translateX(-3680px)}36.5%{transform:translateX(-3760px)}37.11%{transform:translateX(-3840px)}38.06%{transform:translateX(-3920px)}38.52%{transform:translateX(-4000px)}39.44%{transform:translateX(-4080px)}39.86%{transform:translateX(-4160px)}40.43%{transform:translateX(-4240px)}40.89%{transform:translateX(-4320px)}41.42%{transform:translateX(-4400px)}42.34%{transform:translateX(-4480px)}43.05%{transform:translateX(-4560px)}44%{transform:translateX(-4640px)}44.44%{transform:translateX(-4720px)}44.94%{transform:translateX(-4800px)}45.45%{transform:translateX(-4880px)}46.02%{transform:translateX(-4960px)}46.75%{transform:translateX(-5040px)}47.9%{transform:translateX(-5120px)}49.42%{transform:translateX(-5200px)}49.65%{transform:translateX(-5280px)}50.95%{transform:translateX(-5360px)}51.87%{transform:translateX(-5440px)}53.89%{transform:translateX(-5520px)}55.15%{transform:translateX(-5600px)}55.84%{transform:translateX(-5680px)}57.35%{transform:translateX(-5760px)}57.96%{transform:translateX(-5840px)}58.45%{transform:translateX(-5920px)}59.08%{transform:translateX(-6000px)}60.02%{transform:translateX(-6080px)}60.61%{transform:translateX(-6160px)}61.28%{transform:translateX(-6240px)}61.62%{transform:translateX(-6320px)}62.23%{transform:translateX(-6400px)}63.32%{transform:translateX(-6480px)}63.86%{transform:translateX(-6560px)}69.33%{transform:translateX(-6960px)}69.72%{transform:translateX(-7040px)}70.71%{transform:translateX(-7200px)}to{transform:translateX(-7280px)}}.a{fill:#282d35}.f{fill:#b9c0cb}</style><g font-size="1.67" font-family="Monaco,Consolas,Menlo,'Bitstream Vera Sans Mono','Powerline Symbols',monospace"><defs><symbol id="1"><text y="1.67" class="f">$</text></symbol><symbol id="2"><text y="1.67" class="f">$</text><text x="2.004" y="1.67" class="f">500wallpaper</text></symbol><symbol id="3"><text y="1.67" class="f">$</text><text x="2.004" y="1.67" class="f">500wallpaper</text><text x="15.03" y="1.67" class="f">--feature</text></symbol><symbol id="4"><text y="1.67" class="f">$</text><text x="2.004" y="1.67" class="f">500wallpaper</text><text x="15.03" y="1.67" class="f">--feature</text><text x="25.05" y="1.67" class="f">popular</text></symbol><symbol id="5"><text y="1.67" class="f">$</text><text x="2.004" y="1.67" class="f">500wallpaper</text><text x="15.03" y="1.67" class="f">--feature</text><text x="25.05" y="1.67" class="f">popular</text><text x="33.066" y="1.67" class="f">--category</text></symbol><symbol id="6"><text y="1.67" class="f">$</text><text x="2.004" y="1.67" class="f">500wallpaper</text><text x="15.03" y="1.67" class="f">--feature</text><text x="25.05" y="1.67" class="f">popular</text><text x="33.066" y="1.67" class="f">--category</text><text x="44.088" y="1.67" class="f">Landscapes</text></symbol><symbol id="7"><text y="1.67" class="f">$</text><text x="2.004" y="1.67" class="f">500wallpaper</text><text x="15.03" y="1.67" class="f">--feature</text><text x="25.05" y="1.67" class="f">popular</text><text x="33.066" y="1.67" class="f">--category</text><text x="44.088" y="1.67" class="f">Landscapes</text><text x="55.11" y="1.67" class="f">--height</text></symbol><symbol id="8"><text y="1.67" class="f">$</text><text x="2.004" y="1.67" class="f">500wallpaper</text><text x="15.03" y="1.67" class="f">--feature</text><text x="25.05" y="1.67" class="f">popular</text><text x="33.066" y="1.67" class="f">--category</text><text x="44.088" y="1.67" class="f">Landscapes</text><text x="55.11" y="1.67" class="f">--height</text><text x="64.128" y="1.67" class="f">2048</text></symbol><symbol id="9"><text y="1.67" class="f">$</text><text x="2.004" y="1.67" class="f">500wallpaper</text><text x="15.03" y="1.67" class="f">--feature</text><text x="25.05" y="1.67" class="f">popular</text><text x="33.066" y="1.67" class="f">--category</text><text x="44.088" y="1.67" class="f">Landscapes</text><text x="55.11" y="1.67" class="f">--height</text><text x="64.128" y="1.67" class="f">2048</text><text x="69.138" y="1.67" class="f">--landscape</text></symbol><symbol id="10"><text y="1.67" class="f">Retrieving</text><text x="11.022" y="1.67" class="f">photos:</text><text x="19.038" y="1.67" class="f">https://api.500px.com/v1/photos?feature=popular&amp;only=Landscap</text></symbol><symbol id="11"><text y="1.67" class="f">es&amp;image_size[]=2048</text></symbol><symbol id="12"><text y="1.67" class="f">Skipping:</text><text x="10.02" y="1.67" class="f">Midnight-sun-workshop-by-Daniel-Kordan</text></symbol><symbol id="13"><text y="1.67" class="f">Skipping:</text><text x="10.02" y="1.67" class="f">Washington-coast-sunset-by-William-Freebilly-photography</text></symbol><symbol id="14"><text y="1.67" class="f">Skipping:</text><text x="10.02" y="1.67" class="f">Up-above-by-Peter-Zajfrid</text></symbol><symbol id="15"><text y="1.67" class="f">Skipping:</text><text x="10.02" y="1.67" class="f">Heavenly-Light-by-Simon-W-Xu</text></symbol><symbol id="16"><text y="1.67" class="f">Skipping:</text><text x="10.02" y="1.67" class="f">Follow-the-Light-by-Martin-Rak</text></symbol><symbol id="17"><text y="1.67" class="f">Skipping:</text><text x="10.02" y="1.67" class="f">Ramsvik-Sunset-by-Carsten-Meyerdierks</text></symbol><symbol id="18"><text y="1.67" class="f">Skipping:</text><text x="10.02" y="1.67" class="f">Autumn-Palette-by-Ryan-Dyar</text></symbol><symbol id="19"><text y="1.67" class="f">Skipping:</text><text x="10.02" y="1.67" class="f">Chasing-the-Night-by-Daniel-Laan</text></symbol><symbol id="20"><text y="1.67" class="f">Skipping:</text><text x="10.02" y="1.67" class="f">US-Navy-DC3-by-Victor-Carpentier</text></symbol><symbol id="21"><text y="1.67" class="f">Downloading:</text><text x="13.026" y="1.67" class="f">Dolomiti-by-Fabrice-Bisignano</text></symbol><symbol id="22"><text y="1.67" class="f">Image</text><text x="6.012" y="1.67" class="f">saved:</text><text x="13.026" y="1.67" class="f">Dolomiti-by-Fabrice-Bisignano.jpeg</text></symbol><symbol id="a"><path fill="transparent" d="M0 0h80v24H0z"/></symbol><symbol id="b"><path fill="#6f7683" d="M0 0h1.102v2.171H0z"/></symbol></defs><path class="a" d="M0 0h80v52.104H0z"/><g style="animation-duration:19.505256s;animation-iteration-count:infinite;animation-name:i;animation-timing-function:steps(1,end)"><svg width="7360"><svg><use xlink:href="#a"/><use xlink:href="#b" x="-.004"/></svg><svg x="80"><use xlink:href="#a"/><use xlink:href="#b" x="-.004"/></svg><svg x="160"><use xlink:href="#a"/><use xlink:href="#b" x="1.996"/><use xlink:href="#1"/></svg><svg x="240"><use xlink:href="#a"/><use xlink:href="#b" x="2.996"/><text y="1.67" class="f">$</text><text x="2.004" y="1.67" class="f">5</text></svg><svg x="320"><use xlink:href="#a"/><use xlink:href="#b" x="3.996"/><text y="1.67" class="f">$</text><text x="2.004" y="1.67" class="f">50</text></svg><svg x="400"><use xlink:href="#a"/><use xlink:href="#b" x="4.996"/><text y="1.67" class="f">$</text><text x="2.004" y="1.67" class="f">500</text></svg><svg x="480"><use xlink:href="#a"/><use xlink:href="#b" x="5.996"/><text y="1.67" class="f">$</text><text x="2.004" y="1.67" class="f">500w</text></svg><svg x="560"><use xlink:href="#a"/><use xlink:href="#b" x="6.996"/><text y="1.67" class="f">$</text><text x="2.004" y="1.67" class="f">500wa</text></svg><svg x="640"><use xlink:href="#a"/><use xlink:href="#b" x="7.996"/><text y="1.67" class="f">$</text><text x="2.004" y="1.67" class="f">500wal</text></svg><svg x="720"><use xlink:href="#a"/><use xlink:href="#b" x="8.996"/><text y="1.67" class="f">$</text><text x="2.004" y="1.67" class="f">500wall</text></svg><svg x="800"><use xlink:href="#a"/><use xlink:href="#b" x="9.996"/><text y="1.67" class="f">$</text><text x="2.004" y="1.67" class="f">500wallp</text></svg><svg x="880"><use xlink:href="#a"/><use xlink:href="#b" x="10.996"/><text y="1.67" class="f">$</text><text x="2.004" y="1.67" class="f">500wallpa</text></svg><svg x="960"><use xlink:href="#a"/><use xlink:href="#b" x="11.996"/><text y="1.67" class="f">$</text><text x="2.004" y="1.67" class="f">500wallpap</text></svg><svg x="1040"><use xlink:href="#a"/><use xlink:href="#b" x="12.996"/><text y="1.67" class="f">$</text><text x="2.004" y="1.67" class="f">500wallpape</text></svg><svg x="1120"><use xlink:href="#a"/><use xlink:href="#b" x="13.996"/><use xlink:href="#2"/></svg><svg x="1200"><use xlink:href="#a"/><use xlink:href="#b" x="14.996"/><use xlink:href="#2"/></svg><svg x="1280"><use xlink:href="#a"/><use xlink:href="#b" x="15.996"/><text y="1.67" class="f">$</text><text x="2.004" y="1.67" class="f">500wallpaper</text><text x="15.03" y="1.67" class="f">-</text></svg><svg x="1360"><use xlink:href="#a"/><use xlink:href="#b" x="16.996"/><text y="1.67" class="f">$</text><text x="2.004" y="1.67" class="f">500wallpaper</text><text x="15.03" y="1.67" class="f">--</text></svg><svg x="1440"><use xlink:href="#a"/><use xlink:href="#b" x="17.996"/><text y="1.67" class="f">$</text><text x="2.004" y="1.67" class="f">500wallpaper</text><text x="15.03" y="1.67" class="f">--f</text></svg><svg x="1520"><use xlink:href="#a"/><use xlink:href="#b" x="18.996"/><text y="1.67" class="f">$</text><text x="2.004" y="1.67" class="f">500wallpaper</text><text x="15.03" y="1.67" class="f">--fe</text></svg><svg x="1600"><use xlink:href="#a"/><use xlink:href="#b" x="19.996"/><text y="1.67" class="f">$</text><text x="2.004" y="1.67" class="f">500wallpaper</text><text x="15.03" y="1.67" class="f">--fea</text></svg><svg x="1680"><use xlink:href="#a"/><use xlink:href="#b" x="20.996"/><text y="1.67" class="f">$</text><text x="2.004" y="1.67" class="f">500wallpaper</text><text x="15.03" y="1.67" class="f">--feat</text></svg><svg x="1760"><use xlink:href="#a"/><use xlink:href="#b" x="21.996"/><text y="1.67" class="f">$</text><text x="2.004" y="1.67" class="f">500wallpaper</text><text x="15.03" y="1.67" class="f">--featu</text></svg><svg x="1840"><use xlink:href="#a"/><use xlink:href="#b" x="22.996"/><text y="1.67" class="f">$</text><text x="2.004" y="1.67" class="f">500wallpaper</text><text x="15.03" y="1.67" class="f">--featur</text></svg><svg x="1920"><use xlink:href="#a"/><use xlink:href="#b" x="23.996"/><use xlink:href="#3"/></svg><svg x="2000"><use xlink:href="#a"/><use xlink:href="#b" x="24.996"/><use xlink:href="#3"/></svg><svg x="2080"><use xlink:href="#a"/><use xlink:href="#b" x="25.996"/><text y="1.67" class="f">$</text><text x="2.004" y="1.67" class="f">500wallpaper</text><text x="15.03" y="1.67" class="f">--feature</text><text x="25.05" y="1.67" class="f">p</text></svg><svg x="2160"><use xlink:href="#a"/><use xlink:href="#b" x="26.996"/><text y="1.67" class="f">$</text><text x="2.004" y="1.67" class="f">500wallpaper</text><text x="15.03" y="1.67" class="f">--feature</text><text x="25.05" y="1.67" class="f">po</text></svg><svg x="2240"><use xlink:href="#a"/><use xlink:href="#b" x="27.996"/><text y="1.67" class="f">$</text><text x="2.004" y="1.67" class="f">500wallpaper</text><text x="15.03" y="1.67" class="f">--feature</text><text x="25.05" y="1.67" class="f">pop</text></svg><svg x="2320"><use xlink:href="#a"/><use xlink:href="#b" x="28.996"/><text y="1.67" class="f">$</text><text x="2.004" y="1.67" class="f">500wallpaper</text><text x="15.03" y="1.67" class="f">--feature</text><text x="25.05" y="1.67" class="f">popu</text></svg><svg x="2400"><use xlink:href="#a"/><use xlink:href="#b" x="29.996"/><text y="1.67" class="f">$</text><text x="2.004" y="1.67" class="f">500wallpaper</text><text x="15.03" y="1.67" class="f">--feature</text><text x="25.05" y="1.67" class="f">popul</text></svg><svg x="2480"><use xlink:href="#a"/><use xlink:href="#b" x="30.996"/><text y="1.67" class="f">$</text><text x="2.004" y="1.67" class="f">500wallpaper</text><text x="15.03" y="1.67" class="f">--feature</text><text x="25.05" y="1.67" class="f">popula</text></svg><svg x="2560"><use xlink:href="#a"/><use xlink:href="#b" x="31.996"/><use xlink:href="#4"/></svg><svg x="2640"><use xlink:href="#a"/><use xlink:href="#b" x="32.996"/><use xlink:href="#4"/></svg><svg x="2720"><use xlink:href="#a"/><use xlink:href="#b" x="33.996"/><text y="1.67" class="f">$</text><text x="2.004" y="1.67" class="f">500wallpaper</text><text x="15.03" y="1.67" class="f">--feature</text><text x="25.05" y="1.67" class="f">popular</text><text x="33.066" y="1.67" class="f">-</text></svg><svg x="2800"><use xlink:href="#a"/><use xlink:href="#b" x="34.996"/><text y="1.67" class="f">$</text><text x="2.004" y="1.67" class="f">500wallpaper</text><text x="15.03" y="1.67" class="f">--feature</text><text x="25.05" y="1.67" class="f">popular</text><text x="33.066" y="1.67" class="f">--</text></svg><svg x="2880"><use xlink:href="#a"/><use xlink:href="#b" x="35.996"/><text y="1.67" class="f">$</text><text x="2.004" y="1.67" class="f">500wallpaper</text><text x="15.03" y="1.67" class="f">--feature</text><text x="25.05" y="1.67" class="f">popular</text><text x="33.066" y="1.67" class="f">--c</text></svg><svg x="2960"><use xlink:href="#a"/><use xlink:href="#b" x="36.996"/><text y="1.67" class="f">$</text><text x="2.004" y="1.67" class="f">500wallpaper</text><text x="15.03" y="1.67" class="f">--feature</text><text x="25.05" y="1.67" class="f">popular</text><text x="33.066" y="1.67" class="f">--ca</text></svg><svg x="3040"><use xlink:href="#a"/><use xlink:href="#b" x="37.996"/><text y="1.67" class="f">$</text><text x="2.004" y="1.67" class="f">500wallpaper</text><text x="15.03" y="1.67" class="f">--feature</text><text x="25.05" y="1.67" class="f">popular</text><text x="33.066" y="1.67" class="f">--cat</text></svg><svg x="3120"><use xlink:href="#a"/><use xlink:href="#b" x="38.996"/><text y="1.67" class="f">$</text><text x="2.004" y="1.67" class="f">500wallpaper</text><text x="15.03" y="1.67" class="f">--feature</text><text x="25.05" y="1.67" class="f">popular</text><text x="33.066" y="1.67" class="f">--cate</text></svg><svg x="3200"><use xlink:href="#a"/><use xlink:href="#b" x="39.996"/><text y="1.67" class="f">$</text><text x="2.004" y="1.67" class="f">500wallpaper</text><text x="15.03" y="1.67" class="f">--feature</text><text x="25.05" y="1.67" class="f">popular</text><text x="33.066" y="1.67" class="f">--categ</text></svg><svg x="3280"><use xlink:href="#a"/><use xlink:href="#b" x="40.996"/><text y="1.67" class="f">$</text><text x="2.004" y="1.67" class="f">500wallpaper</text><text x="15.03" y="1.67" class="f">--feature</text><text x="25.05" y="1.67" class="f">popular</text><text x="33.066" y="1.67" class="f">--catego</text></svg><svg x="3360"><use xlink:href="#a"/><use xlink:href="#b" x="41.996"/><text y="1.67" class="f">$</text><text x="2.004" y="1.67" class="f">500wallpaper</text><text x="15.03" y="1.67" class="f">--feature</text><text x="25.05" y="1.67" class="f">popular</text><text x="33.066" y="1.67" class="f">--categor</text></svg><svg x="3440"><use xlink:href="#a"/><use xlink:href="#b" x="42.996"/><use xlink:href="#5"/></svg><svg x="3520"><use xlink:href="#a"/><use xlink:href="#b" x="43.996"/><use xlink:href="#5"/></svg><svg x="3600"><use xlink:href="#a"/><use xlink:href="#b" x="44.996"/><text y="1.67" class="f">$</text><text x="2.004" y="1.67" class="f">500wallpaper</text><text x="15.03" y="1.67" class="f">--feature</text><text x="25.05" y="1.67" class="f">popular</text><text x="33.066" y="1.67" class="f">--category</text><text x="44.088" y="1.67" class="f">L</text></svg><svg x="3680"><use xlink:href="#a"/><use xlink:href="#b" x="45.996"/><text y="1.67" class="f">$</text><text x="2.004" y="1.67" class="f">500wallpaper</text><text x="15.03" y="1.67" class="f">--feature</text><text x="25.05" y="1.67" class="f">popular</text><text x="33.066" y="1.67" class="f">--category</text><text x="44.088" y="1.67" class="f">La</text></svg><svg x="3760"><use xlink:href="#a"/><use xlink:href="#b" x="46.996"/><text y="1.67" class="f">$</text><text x="2.004" y="1.67" class="f">500wallpaper</text><text x="15.03" y="1.67" class="f">--feature</text><text x="25.05" y="1.67" class="f">popular</text><text x="33.066" y="1.67" class="f">--category</text><text x="44.088" y="1.67" class="f">Lan</text></svg><svg x="3840"><use xlink:href="#a"/><use xlink:href="#b" x="47.996"/><text y="1.67" class="f">$</text><text x="2.004" y="1.67" class="f">500wallpaper</text><text x="15.03" y="1.67" class="f">--feature</text><text x="25.05" y="1.67" class="f">popular</text><text x="33.066" y="1.67" class="f">--category</text><text x="44.088" y="1.67" class="f">Land</text></svg><svg x="3920"><use xlink:href="#a"/><use xlink:href="#b" x="48.996"/><text y="1.67" class="f">$</text><text x="2.004" y="1.67" class="f">500wallpaper</text><text x="15.03" y="1.67" class="f">--feature</text><text x="25.05" y="1.67" class="f">popular</text><text x="33.066" y="1.67" class="f">--category</text><text x="44.088" y="1.67" class="f">Lands</text></svg><svg x="4000"><use xlink:href="#a"/><use xlink:href="#b" x="49.996"/><text y="1.67" class="f">$</text><text x="2.004" y="1.67" class="f">500wallpaper</text><text x="15.03" y="1.67" class="f">--feature</text><text x="25.05" y="1.67" class="f">popular</text><text x="33.066" y="1.67" class="f">--category</text><text x="44.088" y="1.67" class="f">Landsc</text></svg><svg x="4080"><use xlink:href="#a"/><use xlink:href="#b" x="50.996"/><text y="1.67" class="f">$</text><text x="2.004" y="1.67" class="f">500wallpaper</text><text x="15.03" y="1.67" class="f">--feature</text><text x="25.05" y="1.67" class="f">popular</text><text x="33.066" y="1.67" class="f">--category</text><text x="44.088" y="1.67" class="f">Landsca</text></svg><svg x="4160"><use xlink:href="#a"/><use xlink:href="#b" x="51.996"/><text y="1.67" class="f">$</text><text x="2.004" y="1.67" class="f">500wallpaper</text><text x="15.03" y="1.67" class="f">--feature</text><text x="25.05" y="1.67" class="f">popular</text><text x="33.066" y="1.67" class="f">--category</text><text x="44.088" y="1.67" class="f">Landscap</text></svg><svg x="4240"><use xlink:href="#a"/><use xlink:href="#b" x="52.996"/><text y="1.67" class="f">$</text><text x="2.004" y="1.67" class="f">500wallpaper</text><text x="15.03" y="1.67" class="f">--feature</text><text x="25.05" y="1.67" class="f">popular</text><text x="33.066" y="1.67" class="f">--category</text><text x="44.088" y="1.67" class="f">Landscape</text></svg><svg x="4320"><use xlink:href="#a"/><use xlink:href="#b" x="53.996"/><use xlink:href="#6"/></svg><svg x="4400"><use xlink:href="#a"/><use xlink:href="#b" x="54.996"/><use xlink:href="#6"/></svg><svg x="4480"><use xlink:href="#a"/><use xlink:href="#b" x="55.996"/><text y="1.67" class="f">$</text><text x="2.004" y="1.67" class="f">500wallpaper</text><text x="15.03" y="1.67" class="f">--feature</text><text x="25.05" y="1.67" class="f">popular</text><text x="33.066" y="1.67" class="f">--category</text><text x="44.088" y="1.67" class="f">Landscapes</text><text x="55.11" y="1.67" class="f">-</text></svg><svg x="4560"><use xlink:href="#a"/><use xlink:href="#b" x="56.996"/><text y="1.67" class="f">$</text><text x="2.004" y="1.67" class="f">500wallpaper</text><text x="15.03" y="1.67" class="f">--feature</text><text x="25.05" y="1.67" class="f">popular</text><text x="33.066" y="1.67" class="f">--category</text><text x="44.088" y="1.67" class="f">Landscapes</text><text x="55.11" y="1.67" class="f">--</text></svg><svg x="4640"><use xlink:href="#a"/><use xlink:href="#b" x="57.996"/><text y="1.67" class="f">$</text><text x="2.004" y="1.67" class="f">500wallpaper</text><text x="15.03" y="1.67" class="f">--feature</text><text x="25.05" y="1.67" class="f">popular</text><text x="33.066" y="1.67" class="f">--category</text><text x="44.088" y="1.67" class="f">Landscapes</text><text x="55.11" y="1.67" class="f">--h</text></svg><svg x="4720"><use xlink:href="#a"/><use xlink:href="#b" x="58.996"/><text y="1.67" class="f">$</text><text x="2.004" y="1.67" class="f">500wallpaper</text><text x="15.03" y="1.67" class="f">--feature</text><text x="25.05" y="1.67" class="f">popular</text><text x="33.066" y="1.67" class="f">--category</text><text x="44.088" y="1.67" class="f">Landscapes</text><text x="55.11" y="1.67" class="f">--he</text></svg><svg x="4800"><use xlink:href="#a"/><use xlink:href="#b" x="59.996"/><text y="1.67" class="f">$</text><text x="2.004" y="1.67" class="f">500wallpaper</text><text x="15.03" y="1.67" class="f">--feature</text><text x="25.05" y="1.67" class="f">popular</text><text x="33.066" y="1.67" class="f">--category</text><text x="44.088" y="1.67" class="f">Landscapes</text><text x="55.11" y="1.67" class="f">--hei</text></svg><svg x="4880"><use xlink:href="#a"/><use xlink:href="#b" x="60.996"/><text y="1.67" class="f">$</text><text x="2.004" y="1.67" class="f">500wallpaper</text><text x="15.03" y="1.67" class="f">--feature</text><text x="25.05" y="1.67" class="f">popular</text><text x="33.066" y="1.67" class="f">--category</text><text x="44.088" y="1.67" class="f">Landscapes</text><text x="55.11" y="1.67" class="f">--heig</text></svg><svg x="4960"><use xlink:href="#a"/><use xlink:href="#b" x="61.996"/><text y="1.67" class="f">$</text><text x="2.004" y="1.67" class="f">500wallpaper</text><text x="15.03" y="1.67" class="f">--feature</text><text x="25.05" y="1.67" class="f">popular</text><text x="33.066" y="1.67" class="f">--category</text><text x="44.088" y="1.67" class="f">Landscapes</text><text x="55.11" y="1.67" class="f">--heigh</text></svg><svg x="5040"><use xlink:href="#a"/><use xlink:href="#b" x="62.996"/><use xlink:href="#7"/></svg><svg x="5120"><use xlink:href="#a"/><use xlink:href="#b" x="63.996"/><use xlink:href="#7"/></svg><svg x="5200"><use xlink:href="#a"/><use xlink:href="#b" x="64.996"/><text y="1.67" class="f">$</text><text x="2.004" y="1.67" class="f">500wallpaper</text><text x="15.03" y="1.67" class="f">--feature</text><text x="25.05" y="1.67" class="f">popular</text><text x="33.066" y="1.67" class="f">--category</text><text x="44.088" y="1.67" class="f">Landscapes</text><text x="55.11" y="1.67" class="f">--height</text><text x="64.128" y="1.67" class="f">2</text></svg><svg x="5280"><use xlink:href="#a"/><use xlink:href="#b" x="65.996"/><text y="1.67" class="f">$</text><text x="2.004" y="1.67" class="f">500wallpaper</text><text x="15.03" y="1.67" class="f">--feature</text><text x="25.05" y="1.67" class="f">popular</text><text x="33.066" y="1.67" class="f">--category</text><text x="44.088" y="1.67" class="f">Landscapes</text><text x="55.11" y="1.67" class="f">--height</text><text x="64.128" y="1.67" class="f">20</text></svg><svg x="5360"><use xlink:href="#a"/><use xlink:href="#b" x="66.996"/><text y="1.67" class="f">$</text><text x="2.004" y="1.67" class="f">500wallpaper</text><text x="15.03" y="1.67" class="f">--feature</text><text x="25.05" y="1.67" class="f">popular</text><text x="33.066" y="1.67" class="f">--category</text><text x="44.088" y="1.67" class="f">Landscapes</text><text x="55.11" y="1.67" class="f">--height</text><text x="64.128" y="1.67" class="f">204</text></svg><svg x="5440"><use xlink:href="#a"/><use xlink:href="#b" x="67.996"/><use xlink:href="#8"/></svg><svg x="5520"><use xlink:href="#a"/><use xlink:href="#b" x="68.996"/><use xlink:href="#8"/></svg><svg x="5600"><use xlink:href="#a"/><use xlink:href="#b" x="69.996"/><text y="1.67" class="f">$</text><text x="2.004" y="1.67" class="f">500wallpaper</text><text x="15.03" y="1.67" class="f">--feature</text><text x="25.05" y="1.67" class="f">popular</text><text x="33.066" y="1.67" class="f">--category</text><text x="44.088" y="1.67" class="f">Landscapes</text><text x="55.11" y="1.67" class="f">--height</text><text x="64.128" y="1.67" class="f">2048</text><text x="69.138" y="1.67" class="f">-</text></svg><svg x="5680"><use xlink:href="#a"/><use xlink:href="#b" x="70.996"/><text y="1.67" class="f">$</text><text x="2.004" y="1.67" class="f">500wallpaper</text><text x="15.03" y="1.67" class="f">--feature</text><text x="25.05" y="1.67" class="f">popular</text><text x="33.066" y="1.67" class="f">--category</text><text x="44.088" y="1.67" class="f">Landscapes</text><text x="55.11" y="1.67" class="f">--height</text><text x="64.128" y="1.67" class="f">2048</text><text x="69.138" y="1.67" class="f">--</text></svg><svg x="5760"><use xlink:href="#a"/><use xlink:href="#b" x="71.996"/><text y="1.67" class="f">$</text><text x="2.004" y="1.67" class="f">500wallpaper</text><text x="15.03" y="1.67" class="f">--feature</text><text x="25.05" y="1.67" class="f">popular</text><text x="33.066" y="1.67" class="f">--category</text><text x="44.088" y="1.67" class="f">Landscapes</text><text x="55.11" y="1.67" class="f">--height</text><text x="64.128" y="1.67" class="f">2048</text><text x="69.138" y="1.67" class="f">--l</text></svg><svg x="5840"><use xlink:href="#a"/><use xlink:href="#b" x="72.996"/><text y="1.67" class="f">$</text><text x="2.004" y="1.67" class="f">500wallpaper</text><text x="15.03" y="1.67" class="f">--feature</text><text x="25.05" y="1.67" class="f">popular</text><text x="33.066" y="1.67" class="f">--category</text><text x="44.088" y="1.67" class="f">Landscapes</text><text x="55.11" y="1.67" class="f">--height</text><text x="64.128" y="1.67" class="f">2048</text><text x="69.138" y="1.67" class="f">--la</text></svg><svg x="5920"><use xlink:href="#a"/><use xlink:href="#b" x="73.996"/><text y="1.67" class="f">$</text><text x="2.004" y="1.67" class="f">500wallpaper</text><text x="15.03" y="1.67" class="f">--feature</text><text x="25.05" y="1.67" class="f">popular</text><text x="33.066" y="1.67" class="f">--category</text><text x="44.088" y="1.67" class="f">Landscapes</text><text x="55.11" y="1.67" class="f">--height</text><text x="64.128" y="1.67" class="f">2048</text><text x="69.138" y="1.67" class="f">--lan</text></svg><svg x="6000"><use xlink:href="#a"/><use xlink:href="#b" x="74.996"/><text y="1.67" class="f">$</text><text x="2.004" y="1.67" class="f">500wallpaper</text><text x="15.03" y="1.67" class="f">--feature</text><text x="25.05" y="1.67" class="f">popular</text><text x="33.066" y="1.67" class="f">--category</text><text x="44.088" y="1.67" class="f">Landscapes</text><text x="55.11" y="1.67" class="f">--height</text><text x="64.128" y="1.67" class="f">2048</text><text x="69.138" y="1.67" class="f">--land</text></svg><svg x="6080"><use xlink:href="#a"/><use xlink:href="#b" x="75.996"/><text y="1.67" class="f">$</text><text x="2.004" y="1.67" class="f">500wallpaper</text><text x="15.03" y="1.67" class="f">--feature</text><text x="25.05" y="1.67" class="f">popular</text><text x="33.066" y="1.67" class="f">--category</text><text x="44.088" y="1.67" class="f">Landscapes</text><text x="55.11" y="1.67" class="f">--height</text><text x="64.128" y="1.67" class="f">2048</text><text x="69.138" y="1.67" class="f">--lands</text></svg><svg x="6160"><use xlink:href="#a"/><use xlink:href="#b" x="76.996"/><text y="1.67" class="f">$</text><text x="2.004" y="1.67" class="f">500wallpaper</text><text x="15.03" y="1.67" class="f">--feature</text><text x="25.05" y="1.67" class="f">popular</text><text x="33.066" y="1.67" class="f">--category</text><text x="44.088" y="1.67" class="f">Landscapes</text><text x="55.11" y="1.67" class="f">--height</text><text x="64.128" y="1.67" class="f">2048</text><text x="69.138" y="1.67" class="f">--landsc</text></svg><svg x="6240"><use xlink:href="#a"/><use xlink:href="#b" x="77.996"/><text y="1.67" class="f">$</text><text x="2.004" y="1.67" class="f">500wallpaper</text><text x="15.03" y="1.67" class="f">--feature</text><text x="25.05" y="1.67" class="f">popular</text><text x="33.066" y="1.67" class="f">--category</text><text x="44.088" y="1.67" class="f">Landscapes</text><text x="55.11" y="1.67" class="f">--height</text><text x="64.128" y="1.67" class="f">2048</text><text x="69.138" y="1.67" class="f">--landsca</text></svg><svg x="6320"><use xlink:href="#a"/><use xlink:href="#b" x="78.996"/><text y="1.67" class="f">$</text><text x="2.004" y="1.67" class="f">500wallpaper</text><text x="15.03" y="1.67" class="f">--feature</text><text x="25.05" y="1.67" class="f">popular</text><text x="33.066" y="1.67" class="f">--category</text><text x="44.088" y="1.67" class="f">Landscapes</text><text x="55.11" y="1.67" class="f">--height</text><text x="64.128" y="1.67" class="f">2048</text><text x="69.138" y="1.67" class="f">--landscap</text></svg><svg x="6400"><use xlink:href="#a"/><use xlink:href="#b" x="-.004" y="2.146"/><use xlink:href="#9"/></svg><svg x="6480"><use xlink:href="#a"/><use xlink:href="#b" x="-.004" y="2.146"/><use xlink:href="#9"/></svg><svg x="6560"><use xlink:href="#a"/><use xlink:href="#b" x="-.004" y="6.488"/><use xlink:href="#9"/><use xlink:href="#10" y="2.171"/><use xlink:href="#11" y="4.342"/></svg><svg x="6640"><use xlink:href="#a"/><use xlink:href="#b" x="-.004" y="8.659"/><use xlink:href="#9"/><use xlink:href="#10" y="2.171"/><use xlink:href="#11" y="4.342"/><use xlink:href="#12" y="6.513"/></svg><svg x="6720"><use xlink:href="#a"/><use xlink:href="#b" x="-.004" y="10.83"/><use xlink:href="#9"/><use xlink:href="#10" y="2.171"/><use xlink:href="#11" y="4.342"/><use xlink:href="#12" y="6.513"/><use xlink:href="#13" y="8.684"/></svg><svg x="6800"><use xlink:href="#a"/><use xlink:href="#b" x="-.004" y="19.514"/><use xlink:href="#9"/><use xlink:href="#10" y="2.171"/><use xlink:href="#11" y="4.342"/><use xlink:href="#12" y="6.513"/><use xlink:href="#13" y="8.684"/><use xlink:href="#14" y="10.855"/><use xlink:href="#15" y="13.026"/><use xlink:href="#16" y="15.197"/><use xlink:href="#17" y="17.368"/></svg><svg x="6880"><use xlink:href="#a"/><use xlink:href="#b" x="-.004" y="26.027"/><use xlink:href="#9"/><use xlink:href="#10" y="2.171"/><use xlink:href="#11" y="4.342"/><use xlink:href="#12" y="6.513"/><use xlink:href="#13" y="8.684"/><use xlink:href="#14" y="10.855"/><use xlink:href="#15" y="13.026"/><use xlink:href="#16" y="15.197"/><use xlink:href="#17" y="17.368"/><use xlink:href="#18" y="19.539"/><use xlink:href="#19" y="21.71"/><use xlink:href="#20" y="23.881"/></svg><svg x="6960"><use xlink:href="#a"/><use xlink:href="#b" x="-.004" y="28.198"/><use xlink:href="#9"/><use xlink:href="#10" y="2.171"/><use xlink:href="#11" y="4.342"/><use xlink:href="#12" y="6.513"/><use xlink:href="#13" y="8.684"/><use xlink:href="#14" y="10.855"/><use xlink:href="#15" y="13.026"/><use xlink:href="#16" y="15.197"/><use xlink:href="#17" y="17.368"/><use xlink:href="#18" y="19.539"/><use xlink:href="#19" y="21.71"/><use xlink:href="#20" y="23.881"/><use xlink:href="#21" y="26.052"/></svg><svg x="7040"><use xlink:href="#a"/><use xlink:href="#b" x="-.004" y="30.369"/><use xlink:href="#9"/><use xlink:href="#10" y="2.171"/><use xlink:href="#11" y="4.342"/><use xlink:href="#12" y="6.513"/><use xlink:href="#13" y="8.684"/><use xlink:href="#14" y="10.855"/><use xlink:href="#15" y="13.026"/><use xlink:href="#16" y="15.197"/><use xlink:href="#17" y="17.368"/><use xlink:href="#18" y="19.539"/><use xlink:href="#19" y="21.71"/><use xlink:href="#20" y="23.881"/><use xlink:href="#21" y="26.052"/><use xlink:href="#22" y="28.223"/></svg><svg x="7120"><use xlink:href="#a"/><use xlink:href="#b" x="-.004" y="30.369"/><use xlink:href="#9"/><use xlink:href="#10" y="2.171"/><use xlink:href="#11" y="4.342"/><use xlink:href="#12" y="6.513"/><use xlink:href="#13" y="8.684"/><use xlink:href="#14" y="10.855"/><use xlink:href="#15" y="13.026"/><use xlink:href="#16" y="15.197"/><use xlink:href="#17" y="17.368"/><use xlink:href="#18" y="19.539"/><use xlink:href="#19" y="21.71"/><use xlink:href="#20" y="23.881"/><use xlink:href="#21" y="26.052"/><use xlink:href="#22" y="28.223"/></svg><svg x="7200"><use xlink:href="#a"/><use xlink:href="#b" x="1.996" y="30.369"/><use xlink:href="#9"/><use xlink:href="#10" y="2.171"/><use xlink:href="#11" y="4.342"/><use xlink:href="#12" y="6.513"/><use xlink:href="#13" y="8.684"/><use xlink:href="#14" y="10.855"/><use xlink:href="#15" y="13.026"/><use xlink:href="#16" y="15.197"/><use xlink:href="#17" y="17.368"/><use xlink:href="#18" y="19.539"/><use xlink:href="#19" y="21.71"/><use xlink:href="#20" y="23.881"/><use xlink:href="#21" y="26.052"/><use xlink:href="#22" y="28.223"/><use xlink:href="#1" y="30.394"/></svg><svg x="7280"><use xlink:href="#a"/><use xlink:href="#b" x="-.004" y="32.54"/><use xlink:href="#9"/><use xlink:href="#10" y="2.171"/><use xlink:href="#11" y="4.342"/><use xlink:href="#12" y="6.513"/><use xlink:href="#13" y="8.684"/><use xlink:href="#14" y="10.855"/><use xlink:href="#15" y="13.026"/><use xlink:href="#16" y="15.197"/><use xlink:href="#17" y="17.368"/><use xlink:href="#18" y="19.539"/><use xlink:href="#19" y="21.71"/><use xlink:href="#20" y="23.881"/><use xlink:href="#21" y="26.052"/><use xlink:href="#22" y="28.223"/><text y="32.064" class="f">$</text><text x="2.004" y="32.064" class="f">exit</text></svg></svg></g></g></svg></svg>